<svg width="728" height="768" viewBox="0 0 728 768" fill="none" xmlns="http://www.w3.org/2000/svg">
<g filter="url(#filter0_d_579_6)">
<path d="M644 384C644 538.64 518.64 664 364 664C209.36 664 84 538.64 84 384C84 229.36 209.36 104 364 104C518.64 104 644 229.36 644 384ZM158.703 384C158.703 497.383 250.617 589.297 364 589.297C477.383 589.297 569.297 497.383 569.297 384C569.297 270.617 477.383 178.703 364 178.703C250.617 178.703 158.703 270.617 158.703 384Z" fill="url(#paint0_linear_579_6)"/>
</g>
<ellipse cx="364.001" cy="384" rx="205.821" ry="209.465" fill="white"/>
<defs>
<filter id="filter0_d_579_6" x="84" y="85" width="605" height="604" filterUnits="userSpaceOnUse" color-interpolation-filters="sRGB">
<feFlood flood-opacity="0" result="BackgroundImageFix"/>
<feColorMatrix in="SourceAlpha" type="matrix" values="0 0 0 0 0 0 0 0 0 0 0 0 0 0 0 0 0 0 127 0" result="hardAlpha"/>
<feOffset dx="23" dy="3"/>
<feGaussianBlur stdDeviation="11"/>
<feComposite in2="hardAlpha" operator="out"/>
<feColorMatrix type="matrix" values="0 0 0 0 0 0 0 0 0 0 0 0 0 0 0 0 0 0 0.26 0"/>
<feBlend mode="normal" in2="BackgroundImageFix" result="effect1_dropShadow_579_6"/>
<feBlend mode="normal" in="SourceGraphic" in2="effect1_dropShadow_579_6" result="shape"/>
</filter>
<linearGradient id="paint0_linear_579_6" x1="168.331" y1="195.666" x2="559.998" y2="598.444" gradientUnits="userSpaceOnUse">
<stop stop-color="#A48643"/>
<stop offset="1" stop-color="#8D733A"/>
</linearGradient>
</defs>
</svg>
